<svg xmlns="http://www.w3.org/2000/svg" version="1.1" xmlns:xlink="http://www.w3.org/1999/xlink" viewBox="0 0 200 200"><rect width="200" height="200" fill="url('#gradient')"></rect><defs><linearGradient id="gradient" gradientTransform="rotate(53 0.5 0.5)"><stop offset="0%" stop-color="#1153ba"></stop><stop offset="100%" stop-color="#3a2e6b"></stop></linearGradient></defs><g><g fill="#81bce7" transform="matrix(7.417303822937626,0,0,7.417303822937626,10.214043574685775,152.70431572436325)" stroke="#c2ddf0" stroke-width="0.2"><path d="M3.65-14.22L6.28-8.05L8.90-14.22L12.60-14.22L8.02-5.11L8.02 0L4.54 0L4.54-5.11L-0.03-14.22L3.65-14.22ZM20.81-3.78L20.81-3.78Q20.81-4.53 20.28-4.95Q19.75-5.37 18.41-5.82Q17.07-6.27 16.22-6.69L16.22-6.69Q13.46-8.05 13.46-10.42L13.46-10.42Q13.46-11.60 14.15-12.50Q14.83-13.41 16.09-13.91Q17.35-14.41 18.93-14.41L18.93-14.41Q20.46-14.41 21.67-13.87Q22.89-13.32 23.56-12.31Q24.24-11.30 24.24-10L24.24-10L20.82-10Q20.82-10.87 20.29-11.35Q19.76-11.83 18.85-11.83L18.85-11.83Q17.93-11.83 17.40-11.42Q16.87-11.02 16.87-10.39L16.87-10.39Q16.87-9.84 17.45-9.40Q18.04-8.96 19.51-8.48Q20.99-8.01 21.93-7.46L21.93-7.46Q24.24-6.13 24.24-3.80L24.24-3.80Q24.24-1.93 22.83-0.87Q21.43 0.20 18.97 0.20L18.97 0.20Q17.25 0.20 15.84-0.42Q14.44-1.04 13.74-2.12Q13.03-3.20 13.03-4.61L13.03-4.61L16.46-4.61Q16.46-3.47 17.06-2.92Q17.65-2.38 18.97-2.38L18.97-2.38Q19.82-2.38 20.32-2.75Q20.81-3.12 20.81-3.78Z"></path></g></g></svg>